<?xml version="1.0" encoding="utf-8"?>
<!-- Generator: Adobe Illustrator 22.0.0, SVG Export Plug-In . SVG Version: 6.00 Build 0)  -->
<svg version="1.1" id="Capa_1" xmlns="http://www.w3.org/2000/svg" xmlns:xlink="http://www.w3.org/1999/xlink" x="0px" y="0px"
	 viewBox="0 0 512 512" style="enable-background:new 0 0 512 512;" xml:space="preserve">
<style type="text/css">
	.st0{fill:#090305;}
</style>
<g>
	<path class="st0" d="M471,132.3h-72.7L364.2,47H147.8l-34.1,85.3h-11.3V89.6H51.2v42.7H41c-22.6,0-41,18.4-41,41v250.6
		c0,22.7,18.5,41.2,41.2,41.2h429.5c22.7,0,41.2-18.5,41.2-41.2V173.2C512,150.6,493.6,132.3,471,132.3z M68.3,106.7h17.1v25.6H68.3
		V106.7z M494.9,423.8c0,13.3-10.8,24.2-24.2,24.2H41.2C27.9,448,17,437.2,17,423.8V173.2c0-13.2,10.7-23.9,23.9-23.9h10.2h51.2
		h22.8L159.4,64h193.2l34.1,85.3H471c13.2,0,23.9,10.7,23.9,23.9V423.8L494.9,423.8z"/>
	<path class="st0" d="M256,123.7c-84.7,0-153.6,68.9-153.6,153.6S171.3,430.9,256,430.9S409.6,362,409.6,277.3
		S340.7,123.7,256,123.7z M256,413.9c-75.3,0-136.5-61.3-136.5-136.5S180.7,140.8,256,140.8s136.5,61.3,136.5,136.5
		S331.3,413.9,256,413.9z"/>
	<path class="st0" d="M256,174.9c-56.5,0-102.4,45.9-102.4,102.4S199.5,379.7,256,379.7s102.4-45.9,102.4-102.4
		S312.5,174.9,256,174.9z M256,362.7c-47.1,0-85.3-38.3-85.3-85.3S208.9,192,256,192s85.3,38.3,85.3,85.3S303.1,362.7,256,362.7z"/>
	<path class="st0" d="M443.7,166.4c-18.8,0-34.1,15.3-34.1,34.1s15.3,34.1,34.1,34.1c18.8,0,34.1-15.3,34.1-34.1
		S462.6,166.4,443.7,166.4z M443.7,217.6c-9.4,0-17.1-7.7-17.1-17.1c0-9.4,7.7-17.1,17.1-17.1s17.1,7.7,17.1,17.1
		C460.8,209.9,453.1,217.6,443.7,217.6z"/>
</g>
</svg>
